<svg width="34" height="32" viewBox="0 0 34 32" fill="none" xmlns="http://www.w3.org/2000/svg">
<path d="M28.978 14.0667V9.49333C28.978 7.85333 27.6855 6.04 26.1042 5.46666L19.243 2.97333C18.1017 2.56 16.2317 2.56 15.0905 2.97333L8.22922 5.48C6.64797 6.05333 5.35547 7.86666 5.35547 9.49333V19.4C5.35547 20.9733 6.42797 23.04 7.73422 23.9867L13.6467 28.2667C14.6092 28.9867 15.888 29.3333 17.1667 29.3333" stroke="#292D32" stroke-width="1.5" stroke-linecap="round" stroke-linejoin="round"/>
<path d="M22.6667 26.6667C25.7043 26.6667 28.1667 24.2789 28.1667 21.3333C28.1667 18.3878 25.7043 16 22.6667 16C19.6292 16 17.1667 18.3878 17.1667 21.3333C17.1667 24.2789 19.6292 26.6667 22.6667 26.6667Z" stroke="#292D32" stroke-width="1.5" stroke-linecap="round" stroke-linejoin="round"/>
<path d="M29.5356 28H29.5479" stroke="#292D32" stroke-width="2" stroke-linecap="round" stroke-linejoin="round"/>
</svg>
