<svg width="32" height="32" viewBox="0 0 32 32" fill="none" xmlns="http://www.w3.org/2000/svg">
<path d="M25.9334 9.25333V12.6C25.9334 13.5467 24.9734 14.16 24.0801 13.8267C22.9601 13.4133 21.7201 13.2533 20.4134 13.3867C17.2401 13.7333 13.9867 16.7867 13.4534 19.9467C13.0134 22.5733 13.8534 25.0267 15.4667 26.76C16.2001 27.56 15.7067 28.8533 14.6267 28.9733C13.7067 29.08 12.8001 29.0533 12.2934 28.68L4.96005 23.2C4.09339 22.5467 3.38672 21.1333 3.38672 20.04V9.25333C3.38672 7.74667 4.53339 6.09333 5.93339 5.56L13.2667 2.81333C14.0267 2.53333 15.2801 2.53333 16.0401 2.81333L23.3734 5.56C24.7867 6.09333 25.9334 7.74667 25.9334 9.25333Z" fill="#292D32"/>
<path d="M21.3333 15.3467C18.0266 15.3467 15.3333 18.04 15.3333 21.3467C15.3333 24.6533 18.0266 27.3467 21.3333 27.3467C24.6399 27.3467 27.3333 24.6533 27.3333 21.3467C27.3333 18.0267 24.6399 15.3467 21.3333 15.3467Z" fill="#292D32"/>
<path d="M28.0001 29.3333C27.6401 29.3333 27.3067 29.1867 27.0534 28.9467C27.0001 28.88 26.9334 28.8133 26.8934 28.7333C26.8401 28.6667 26.8001 28.5867 26.7734 28.5067C26.7334 28.4267 26.7067 28.3467 26.6934 28.2667C26.6801 28.1733 26.6667 28.0933 26.6667 28C26.6667 27.8267 26.7067 27.6533 26.7734 27.4933C26.8401 27.32 26.9334 27.1867 27.0534 27.0533C27.3601 26.7467 27.8267 26.6 28.2534 26.6933C28.3467 26.7067 28.4267 26.7333 28.5067 26.7733C28.5867 26.8 28.6667 26.84 28.7334 26.8933C28.8134 26.9333 28.8801 27 28.9467 27.0533C29.0667 27.1867 29.1601 27.32 29.2267 27.4933C29.2934 27.6533 29.3334 27.8267 29.3334 28C29.3334 28.3467 29.1867 28.6933 28.9467 28.9467C28.8801 29 28.8134 29.0533 28.7334 29.1067C28.6667 29.16 28.5867 29.2 28.5067 29.2267C28.4267 29.2667 28.3467 29.2933 28.2534 29.3067C28.1734 29.32 28.0801 29.3333 28.0001 29.3333Z" fill="#292D32"/>
</svg>
