<svg width="86" height="84" viewBox="0 0 86 84" fill="none" xmlns="http://www.w3.org/2000/svg">
<path d="M20.9687 54.2603C11.4755 56.7211 3.5423 60.6164 3.5423 65.0006C3.5423 72.443 21.2081 78.4762 42.9999 78.4762C64.7917 78.4762 82.4574 72.443 82.4574 65.0006C82.4574 60.6405 74.5244 56.7233 65.1205 54.2603" stroke="#292D32" stroke-width="5.23826"/>
<path d="M38.6692 10.2127L24.453 15.5687C21.1767 16.7937 18.4987 20.6683 18.4987 24.144V45.3117C18.4987 48.6735 20.7209 53.0894 23.4274 55.1121L35.6779 64.2573C39.6949 67.2771 46.3044 67.2771 50.3215 64.2573L62.5719 55.1121C65.2784 53.0894 67.5006 48.6735 67.5006 45.3117V24.144C67.5006 20.6398 64.8226 16.7653 61.5463 15.5402L47.3301 10.2127C44.9084 9.3295 41.0339 9.3295 38.6692 10.2127Z" stroke="#292D32" stroke-width="5.23826" stroke-linecap="round" stroke-linejoin="round"/>
<path d="M42.9712 39.4712C46.1181 39.4712 48.6691 36.9202 48.6691 33.7733C48.6691 30.6265 46.1181 28.0754 42.9712 28.0754C39.8244 28.0754 37.2733 30.6265 37.2733 33.7733C37.2733 36.9202 39.8244 39.4712 42.9712 39.4712Z" stroke="#292D32" stroke-width="5.23826" stroke-miterlimit="10" stroke-linecap="round" stroke-linejoin="round"/>
<path d="M42.9713 39.4712V48.018" stroke="#292D32" stroke-width="5.23826" stroke-miterlimit="10" stroke-linecap="round" stroke-linejoin="round"/>
</svg>
