<svg width="32" height="32" viewBox="0 0 32 32" fill="none" xmlns="http://www.w3.org/2000/svg">
<path d="M21.3334 17.2001V22.8001C21.3334 27.4667 19.4667 29.3334 14.8001 29.3334H9.20008C4.53341 29.3334 2.66675 27.4667 2.66675 22.8001V17.2001C2.66675 12.5334 4.53341 10.6667 9.20008 10.6667H14.8001C19.4667 10.6667 21.3334 12.5334 21.3334 17.2001Z" stroke="#292D32" stroke-width="1.5" stroke-linecap="round" stroke-linejoin="round"/>
<path d="M29.3334 9.20008V14.8001C29.3334 19.4667 27.4667 21.3334 22.8001 21.3334H21.3334V17.2001C21.3334 12.5334 19.4667 10.6667 14.8001 10.6667H10.6667V9.20008C10.6667 4.53341 12.5334 2.66675 17.2001 2.66675H22.8001C27.4667 2.66675 29.3334 4.53341 29.3334 9.20008Z" stroke="#292D32" stroke-width="1.5" stroke-linecap="round" stroke-linejoin="round"/>
</svg>
