<svg width="32" height="32" viewBox="0 0 32 32" fill="none" xmlns="http://www.w3.org/2000/svg">
<path d="M13.4266 3.76003L4.18661 11.16C3.14661 11.9867 2.47995 13.7334 2.70661 15.0401L4.47995 25.6533C4.79995 27.5467 6.61327 29.08 8.53327 29.08H23.4666C25.3733 29.08 27.1999 27.5333 27.5199 25.6533L29.2933 15.0401C29.5066 13.7334 28.84 11.9867 27.8133 11.16L18.5733 3.77338C17.1466 2.62671 14.84 2.6267 13.4266 3.76003Z" stroke="#292D32" stroke-width="1.5" stroke-linecap="round" stroke-linejoin="round"/>
<path d="M16.0001 20.6667C17.841 20.6667 19.3334 19.1743 19.3334 17.3333C19.3334 15.4924 17.841 14 16.0001 14C14.1591 14 12.6667 15.4924 12.6667 17.3333C12.6667 19.1743 14.1591 20.6667 16.0001 20.6667Z" stroke="#292D32" stroke-width="1.5" stroke-linecap="round" stroke-linejoin="round"/>
</svg>
