<svg width="28" height="28" viewBox="0 0 28 28" fill="none" xmlns="http://www.w3.org/2000/svg">
<path d="M25.8133 9.15996L16.5733 1.7733C15.1466 0.626628 12.8399 0.626628 11.4266 1.75996L2.18661 9.15996C1.14661 9.98663 0.479947 11.7333 0.706613 13.04L2.47995 23.6533C2.79995 25.5466 4.61328 27.08 6.53328 27.08H21.4666C23.3733 27.08 25.1999 25.5333 25.5199 23.6533L27.2933 13.04C27.5066 11.7333 26.8399 9.98663 25.8133 9.15996ZM13.9999 18.6666C12.1599 18.6666 10.6666 17.1733 10.6666 15.3333C10.6666 13.4933 12.1599 12 13.9999 12C15.8399 12 17.3333 13.4933 17.3333 15.3333C17.3333 17.1733 15.8399 18.6666 13.9999 18.6666Z" fill="#292D32"/>
</svg>
