<svg width="28" height="26" viewBox="0 0 28 26" fill="none" xmlns="http://www.w3.org/2000/svg">
<path d="M24.47 9.29333C22.0567 9.29333 21.07 7.58666 22.27 5.49333C22.9633 4.28 22.55 2.73333 21.3367 2.04L19.03 0.719997C17.9767 0.09333 16.6167 0.466663 15.99 1.52L15.8433 1.77333C14.6433 3.86666 12.67 3.86666 11.4567 1.77333L11.31 1.52C10.71 0.466663 9.35 0.09333 8.29667 0.719997L5.99 2.04C4.77667 2.73333 4.36334 4.29333 5.05667 5.50666C6.27 7.58666 5.28334 9.29333 2.87 9.29333C1.48334 9.29333 0.33667 10.4267 0.33667 11.8267V14.1733C0.33667 15.56 1.47 16.7067 2.87 16.7067C5.28334 16.7067 6.27 18.4133 5.05667 20.5067C4.36334 21.72 4.77667 23.2667 5.99 23.96L8.29667 25.28C9.35 25.9067 10.71 25.5333 11.3367 24.48L11.4833 24.2267C12.6833 22.1333 14.6567 22.1333 15.87 24.2267L16.0167 24.48C16.6433 25.5333 18.0033 25.9067 19.0567 25.28L21.3633 23.96C22.5767 23.2667 22.99 21.7067 22.2967 20.5067C21.0833 18.4133 22.07 16.7067 24.4833 16.7067C25.87 16.7067 27.0167 15.5733 27.0167 14.1733V11.8267C27.0033 10.44 25.87 9.29333 24.47 9.29333ZM13.67 17.3333C11.2833 17.3333 9.33667 15.3867 9.33667 13C9.33667 10.6133 11.2833 8.66666 13.67 8.66666C16.0567 8.66666 18.0033 10.6133 18.0033 13C18.0033 15.3867 16.0567 17.3333 13.67 17.3333Z" fill="#292D32"/>
</svg>
